<svg xmlns="http://www.w3.org/2000/svg" xmlns:xlink="http://www.w3.org/1999/xlink" width="75" height="84" viewBox="0 0 75 84">
    <defs>
        <path id="a" d="M0 .567h74.469v66.32H0z"/>
    </defs>
    <g fill="none" fill-rule="evenodd">
        <g transform="translate(0 .033)">
            <mask id="b" fill="#fff">
                <use xlink:href="#a"/>
            </mask>
            <path fill="#FFF2E9" d="M23.801 66.888c-10.546.019-16.384-5.76-21.218-13.999C.428 49.212-.698 44.884.468 40.83c1.599-5.559 7.053-9.546 12.389-12.833 5.334-3.284 11.126-6.534 14.123-11.635 1.461-2.486 2.159-5.275 3.65-7.749 3.752-6.227 12.82-9.53 20.331-7.398 7.509 2.13 12.58 9.442 11.371 16.392-.397 2.278-1.376 4.46-1.773 6.738-.395 2.278-.097 4.827 1.703 6.459 2.576 2.342 7.152 1.961 9.973 4.07 3.177 2.375 2.742 7.135.1 10.048-2.641 2.914-6.8 4.362-10.835 5.405-12.211 3.157-21.854 7.013-34.275 4.957" mask="url(#b)"/>
        </g>
        <path fill="#FFF" d="M17.783 71.364l4.854 10.27 10.886-5.163L45.61 39.228l-15.741-5.11z"/>
        <path fill="#FFF" d="M37.92 39.227l12.086 37.245 10.886 5.161 4.855-10.27L53.66 34.12z"/>
        <path fill="#DCEEFF" d="M38.373 39.227L50.46 76.472l10.886 5.161 1.466-3.102-10.085-4.78-11.503-35.449z"/>
        <path stroke="#0F5EEA" stroke-linecap="round" stroke-linejoin="round" stroke-width="3.2" d="M50.006 76.471l10.886 5.163 4.854-10.27L53.66 34.119l-15.74 5.109z"/>
        <path fill="#DCEEFF" d="M17.781 71.364l4.856 10.27 2.962-1.406-4.19-8.864 11.743-36.181-3.283-1.064z"/>
        <path stroke="#0F5EEA" stroke-linecap="round" stroke-linejoin="round" stroke-width="3.2" d="M33.523 76.471l-10.887 5.163-4.854-10.27 12.086-37.245 15.741 5.109z"/>
        <path fill="#FFF" d="M61.58 35.829c0 10.371-8.407 18.779-18.779 18.779s-18.78-8.408-18.78-18.78c0-10.37 8.408-18.778 18.78-18.778 10.372 0 18.78 8.408 18.78 18.779"/>
        <path fill="#FF8F43" d="M46.83 54.529c-10.303 2.275-20.502-4.234-22.777-14.538-2.277-10.302 4.232-20.5 14.538-22.776 10.302-2.277 20.5 4.232 22.776 14.536 2.277 10.304-4.234 20.503-14.536 22.778M65.783 28.43a4.675 4.675 0 0 0-2.685-5.673 4.686 4.686 0 0 1-2.829-3.599 4.674 4.674 0 0 0-4.88-3.949 4.68 4.68 0 0 1-4.11-2.016 4.676 4.676 0 0 0-6.11-1.44 4.67 4.67 0 0 1-4.577-.032 4.676 4.676 0 0 0-6.13 1.354 4.674 4.674 0 0 1-4.138 1.957 4.676 4.676 0 0 0-4.936 3.878 4.675 4.675 0 0 1-2.88 3.56 4.673 4.673 0 0 0-2.764 5.635 4.675 4.675 0 0 1-1.05 4.456 4.677 4.677 0 0 0-.044 6.279 4.677 4.677 0 0 1 .987 4.47 4.676 4.676 0 0 0 2.685 5.675 4.67 4.67 0 0 1 2.827 3.599 4.677 4.677 0 0 0 4.882 3.949 4.673 4.673 0 0 1 4.109 2.016 4.678 4.678 0 0 0 6.112 1.438 4.678 4.678 0 0 1 4.577.034 4.674 4.674 0 0 0 6.13-1.354 4.674 4.674 0 0 1 4.137-1.958 4.674 4.674 0 0 0 4.936-3.88 4.676 4.676 0 0 1 2.88-3.557 4.677 4.677 0 0 0 2.762-5.639 4.674 4.674 0 0 1 1.053-4.454 4.68 4.68 0 0 0 .043-6.278 4.671 4.671 0 0 1-.987-4.47"/>
        <path stroke="#0F5EEA" stroke-linecap="round" stroke-linejoin="round" stroke-width="3.2" d="M48.501 29.54L36.919 41.87"/>
        <path fill="#0F5EEA" d="M40.904 32.155a2.243 2.243 0 0 1-4.485 0 2.243 2.243 0 0 1 4.485 0M49 39.877a2.242 2.242 0 1 1-4.485-.002 2.242 2.242 0 0 1 4.484.002"/>
        <path fill="#DCEEFF" d="M44.72 50.64c-9.952 0-18.02-8.067-18.02-18.02 0-2.313.453-4.516 1.247-6.548a17.907 17.907 0 0 0-2.691 9.437c0 9.952 8.068 18.019 18.02 18.019 7.639 0 14.15-4.762 16.773-11.47-3.173 5.143-8.841 8.582-15.33 8.582"/>
        <path stroke="#0F5EEA" stroke-linecap="round" stroke-linejoin="round" stroke-width="3.2" d="M61.58 35.829c0 10.371-8.407 18.779-18.779 18.779s-18.78-8.408-18.78-18.78c0-10.37 8.408-18.778 18.78-18.778 10.372 0 18.78 8.408 18.78 18.779z"/>
    </g>
</svg>
