<svg xmlns="http://www.w3.org/2000/svg" xmlns:xlink="http://www.w3.org/1999/xlink" width="96" height="91" viewBox="0 0 96 91">
    <defs>
        <path id="a" d="M0 .146h86.043v74.989H0z"/>
        <path id="c" d="M.548.66H41.49V41.6H.55z"/>
    </defs>
    <g fill="none" fill-rule="evenodd">
        <g transform="translate(0 .455)">
            <mask id="b" fill="#fff">
                <use xlink:href="#a"/>
            </mask>
            <path fill="#FFF2E9" d="M32.553 75.135C20.37 75.168 8.55 68.968 2.976 59.618.488 55.443-.808 50.53.546 45.923c1.852-6.315 8.161-10.848 14.327-14.587 6.168-3.738 12.864-7.434 16.333-13.232 1.69-2.824 2.5-5.992 4.224-8.803C39.774 2.224 50.254-1.536 58.928.874c8.673 2.41 14.525 10.707 13.12 18.603-.461 2.587-1.595 5.065-2.058 7.653-.459 2.587-.117 5.48 1.96 7.332 2.973 2.656 8.26 2.22 11.517 4.61 3.667 2.693 3.16 8.1.104 11.411-3.054 3.31-7.86 4.96-12.523 6.15-14.115 3.6-29.146 4.277-43.495 1.959" mask="url(#b)"/>
        </g>
        <path fill="#FFF" d="M27.99 21.073L17.43 32.2v49.785h56.577V32.2L62.88 21.073z"/>
        <path fill="#DCEEFF" d="M22.874 76.998V27.211l5.395-5.685h-.278L17.432 32.653V82.44h56.575v-5.442z"/>
        <path stroke="#0F5EEA" stroke-linecap="round" stroke-width="3.2" d="M27.99 21.073L17.43 32.2v49.785h56.577V32.2L62.88 21.073zM17.432 32.2h55.883"/>
        <path fill="#FF8F43" d="M42.042 19.524l-3.078 13.059v13.803l6.538-4.989 7.93 4.989V32.89l-3.078-13.366"/>
        <g transform="translate(53.8 49.055)">
            <mask id="d" fill="#fff">
                <use xlink:href="#c"/>
            </mask>
            <path fill="#FFF" d="M41.49 21.13c0 11.304-9.166 20.47-20.471 20.47C9.715 41.6.549 32.434.549 21.13.548 9.824 9.714.66 21.018.66c11.305 0 20.47 9.164 20.47 20.47" mask="url(#d)"/>
        </g>
        <path fill="#FF8F43" d="M91.64 70.184c0 9.292-7.53 16.823-16.822 16.823-9.29 0-16.819-7.531-16.819-16.823 0-9.29 7.53-16.822 16.82-16.822S91.64 60.893 91.64 70.184"/>
        <path stroke="#FFF" stroke-linecap="round" stroke-linejoin="round" stroke-width="3.2" d="M75.156 60.678v10.154h6.69"/>
    </g>
</svg>
