<svg xmlns="http://www.w3.org/2000/svg" xmlns:xlink="http://www.w3.org/1999/xlink" width="98" height="75" viewBox="0 0 98 75">
    <defs>
        <path id="a" d="M0 .957h83.448v72.729H0z"/>
    </defs>
    <g fill="none" fill-rule="evenodd">
        <g transform="translate(0 -.357)">
            <mask id="b" fill="#fff">
                <use xlink:href="#a"/>
            </mask>
            <path fill="#FFF2E9" d="M31.571 73.686c-11.816.033-23.28-5.981-28.686-15.05C.472 54.588-.782 49.822.53 45.354c1.798-6.123 7.913-10.521 13.896-14.147 5.98-3.624 12.475-7.21 15.84-12.832 1.638-2.739 2.424-5.813 4.096-8.537 4.213-6.864 14.377-10.512 22.79-8.175C65.563 4.001 71.24 12.05 69.875 19.705c-.446 2.509-1.547 4.913-1.995 7.422-.446 2.51-.113 5.315 1.901 7.114 2.885 2.574 8.011 2.149 11.17 4.47 3.556 2.61 3.064 7.855.1 11.066-2.964 3.211-7.624 4.811-12.147 5.965-13.688 3.492-28.265 4.148-42.18 1.9" mask="url(#b)"/>
        </g>
        <path fill="#FFF" d="M62.152 32.155c0 9.664-7.812 17.5-17.45 17.5-9.64 0-17.454-7.836-17.454-17.5s7.813-17.499 17.453-17.499c9.639 0 17.451 7.835 17.451 17.5"/>
        <path fill="#DCEEFF" d="M44.203 48.907c1.259 0 2.486-.141 3.668-.395-8.337-1.317-14.721-8.533-14.721-17.264 0-8.402 5.905-15.413 13.782-17.106a17.648 17.648 0 0 0-2.73-.234c-9.638 0-17.452 7.834-17.452 17.498 0 9.667 7.814 17.5 17.453 17.5"/>
        <path fill="#FFF" d="M12.474 73.243C16.302 59.27 29.058 48.97 44.2 48.918h.133c9.149 0 17.387 3.7 23.378 9.709 3.987 3.995 6.982 9.01 8.507 14.616H12.474z"/>
        <path stroke="#0F5EEA" stroke-linecap="round" stroke-linejoin="round" stroke-width="3.2" d="M61.654 31.407c0 9.665-7.813 17.5-17.451 17.5-9.64 0-17.453-7.835-17.453-17.5 0-9.664 7.813-17.5 17.453-17.5 9.638 0 17.451 7.836 17.451 17.5z"/>
        <path fill="#DCEEFF" d="M20.796 70.043c2.378-8.688 8.213-15.952 15.925-20.22-11.736 2.78-21.072 11.823-24.246 23.42h63.742a32.49 32.49 0 0 0-1.07-3.2h-54.35z"/>
        <path stroke="#0F5EEA" stroke-linecap="round" stroke-linejoin="round" stroke-width="3.2" d="M12.474 73.243C16.302 59.27 29.058 48.97 44.2 48.918h.133c9.149 0 17.387 3.7 23.378 9.709 3.987 3.995 6.982 9.01 8.507 14.616H12.474z"/>
        <path fill="#FF8F43" d="M67.985 25.929h2.362l3.086 5.473 6.232-5.473H94.82a3.003 3.003 0 0 0 3.004-3.004V4.666a3.004 3.004 0 0 0-3.004-3.005H67.985a3.005 3.005 0 0 0-3.003 3.005v18.26a3.005 3.005 0 0 0 3.003 3.003"/>
        <path stroke="#FFF" stroke-linecap="round" stroke-width="3.2" d="M72.762 8.485h16.394M72.762 15.683h13.194"/>
    </g>
</svg>
