<svg xmlns="http://www.w3.org/2000/svg" xmlns:xlink="http://www.w3.org/1999/xlink" width="98" height="88" viewBox="0 0 98 88">
    <defs>
        <path id="a" d="M0 .892h86.043v74.99H0z"/>
    </defs>
    <g fill="none" fill-rule="evenodd">
        <g transform="translate(0 -.292)">
            <mask id="b" fill="#fff">
                <use xlink:href="#a"/>
            </mask>
            <path fill="#FFF2E9" d="M32.553 75.881c-12.183.034-24.005-6.166-29.578-15.517C.487 56.19-.807 51.276.545 46.67c1.854-6.315 8.161-10.85 14.33-14.587 6.167-3.738 12.862-7.435 16.33-13.232 1.692-2.824 2.501-5.994 4.226-8.803C39.773 2.97 50.255-.79 58.929 1.62c8.673 2.412 14.524 10.708 13.12 18.602-.463 2.587-1.597 5.067-2.058 7.654-.46 2.588-.118 5.48 1.958 7.333 2.975 2.656 8.261 2.22 11.519 4.61 3.667 2.693 3.16 8.097.104 11.411-3.056 3.31-7.861 4.96-12.525 6.15-14.115 3.6-29.146 4.277-43.494 1.959" mask="url(#b)"/>
        </g>
        <path fill="#FFF" d="M70.214 79.708H23.028V34.41a4.32 4.32 0 0 1 4.318-4.322h38.548a4.32 4.32 0 0 1 4.32 4.322v45.3z"/>
        <path fill="#DCEEFF" d="M27.828 74.908V30.254a4.306 4.306 0 0 0-3.2 4.155v45.3h47.185v-4.8H27.828z"/>
        <path stroke="#0F5EEA" stroke-linecap="round" stroke-width="3.2" d="M70.214 79.708H27.022a3.994 3.994 0 0 1-3.994-3.995V34.409a4.32 4.32 0 0 1 4.318-4.322h38.548a4.32 4.32 0 0 1 4.32 4.322v45.3z"/>
        <path fill="#FF8F43" d="M97.664 79.708H71.678v-37.18h9.464c9.125 0 16.522 7.396 16.522 16.521v20.66z"/>
        <path fill="#FFF" d="M49.576 78.905a8.803 8.803 0 1 1-17.605.001 8.803 8.803 0 0 1 17.605-.001"/>
        <path stroke="#0F5EEA" stroke-linecap="round" stroke-width="3.2" d="M43.307 20.15H7.831M16.006 31.635h-7.31"/>
        <path fill="#FFF" d="M88.412 59.182H76.095v-9.423h5.108a7.21 7.21 0 0 1 7.21 7.21v2.213z"/>
        <path fill="#0F5EEA" d="M46.475 78.905a5.7 5.7 0 1 1-11.4 0 5.701 5.701 0 0 1 11.4 0"/>
        <path fill="#FFF" d="M91.176 78.905a8.803 8.803 0 1 1-17.605.001 8.803 8.803 0 0 1 17.605-.001"/>
        <path fill="#0F5EEA" d="M88.075 78.905a5.7 5.7 0 1 1-11.4 0 5.701 5.701 0 0 1 11.4 0"/>
    </g>
</svg>
