<svg xmlns="http://www.w3.org/2000/svg" xmlns:xlink="http://www.w3.org/1999/xlink" width="99" height="98" viewBox="0 0 99 98">
    <defs>
        <path id="a" d="M0 .604h85.166v74.225H0z"/>
        <path id="c" d="M.068.745h10.498V11.2H.068z"/>
        <path id="e" d="M.06.745h10.496V11.2H.06z"/>
    </defs>
    <g fill="none" fill-rule="evenodd">
        <g transform="translate(0 -.003)">
            <mask id="b" fill="#fff">
                <use xlink:href="#a"/>
            </mask>
            <path fill="#FFF2E9" d="M32.221 74.829c-12.059.033-23.76-6.104-29.277-15.36C.482 55.337-.8 50.473.54 45.915c1.835-6.251 8.078-10.738 14.182-14.438 6.106-3.7 12.733-7.357 16.166-13.096 1.672-2.797 2.474-5.933 4.18-8.716 4.3-7.004 14.675-10.726 23.259-8.339 8.587 2.384 14.38 10.597 12.987 18.41-.458 2.561-1.58 5.016-2.037 7.577-.456 2.56-.115 5.423 1.94 7.258 2.943 2.629 8.175 2.195 11.4 4.562 3.63 2.665 3.126 8.017.103 11.294-3.025 3.278-7.782 4.91-12.398 6.09-13.97 3.563-28.848 4.233-43.05 1.939" mask="url(#b)"/>
        </g>
        <path fill="#FFF" d="M25.171 38.778s4.794 40.703 8.861 40.994c4.067.291 35.592.58 35.592.58s4.794.438 8.571-17.868c3.776-18.302 3.63-26.003 3.63-26.003l-41.4 2.035-15.254.262z"/>
        <path fill="#DCEEFF" d="M74.145 36.156v27.866H27.809v4.96h51.136V36.156z"/>
        <path stroke="#0F5EEA" stroke-linecap="round" stroke-width="3.2" d="M30.068 69.503h44.295c2.108 0 3.899-1.472 4.21-3.462l4.074-28.634H41.5"/>
        <path stroke="#0F5EEA" stroke-linecap="round" stroke-width="3.2" d="M70.673 81.64H36.371c-2.783 0-5.156-1.92-5.612-5.178l-6.641-48.199-6.123.746"/>
        <g transform="translate(62.4 86.397)">
            <mask id="d" fill="#fff">
                <use xlink:href="#c"/>
            </mask>
            <path fill="#FF8F43" d="M.068 5.972c0 2.888 2.35 5.23 5.248 5.23 2.9 0 5.25-2.342 5.25-5.23 0-2.886-2.35-5.227-5.25-5.227C2.42.745.068 3.086.068 5.972" mask="url(#d)"/>
        </g>
        <g transform="translate(29.8 86.397)">
            <mask id="f" fill="#fff">
                <use xlink:href="#e"/>
            </mask>
            <path fill="#FF8F43" d="M.06 5.972c0 2.888 2.35 5.23 5.248 5.23 2.9 0 5.248-2.342 5.248-5.23 0-2.886-2.348-5.227-5.248-5.227C2.41.745.06 3.086.06 5.972" mask="url(#f)"/>
        </g>
        <path fill="#FFF" d="M99.014 33.056c0 10.86-8.804 19.663-19.663 19.663S59.69 43.916 59.69 33.056c0-10.859 8.803-19.664 19.662-19.664 10.86 0 19.663 8.805 19.663 19.664"/>
        <path stroke="#FF8F43" stroke-linecap="round" stroke-width="3.2" d="M82.442 44.949a11.49 11.49 0 0 1-1.738.608c-6.04 1.577-12.218-2.04-13.795-8.08a11.284 11.284 0 0 1 2.027-9.816M74.988 23.68c6.04-1.578 12.218 2.038 13.797 8.082a11.28 11.28 0 0 1-1.536 9.134"/>
        <path stroke="#FF8F43" stroke-linecap="round" stroke-width="3.2" d="M90.728 40.743l-4.06 1.081-1.092-4.115M65.42 27.556l4.057-1.081 1.101 4.115"/>
    </g>
</svg>
