<svg xmlns="http://www.w3.org/2000/svg" xmlns:xlink="http://www.w3.org/1999/xlink" width="79" height="86" viewBox="0 0 79 86">
    <defs>
        <path id="a" d="M.266.557h73.012V65.28H.266z"/>
    </defs>
    <g fill="none" fill-rule="evenodd">
        <g transform="translate(4.8 .043)">
            <mask id="b" fill="#fff">
                <use xlink:href="#a"/>
            </mask>
            <path fill="#FFF2E9" d="M45.63 65.281c10.34.02 20.375-5.347 25.114-13.425 2.116-3.605 3.218-7.848 2.076-11.824-1.568-5.45-6.916-9.36-12.148-12.581-5.228-3.22-10.908-6.405-13.846-11.408-1.432-2.439-2.115-5.173-3.576-7.597C39.57 2.34 30.677-.896 23.316 1.19c-7.364 2.09-12.336 9.258-11.15 16.074.388 2.233 1.35 4.372 1.738 6.604.388 2.236.093 4.732-1.668 6.335-2.528 2.296-7.013 1.921-9.78 3.989-3.115 2.328-2.688 6.995-.099 9.852 2.59 2.856 6.667 4.276 10.624 5.3 11.973 3.096 24.73 3.665 36.907 1.65" mask="url(#b)"/>
        </g>
        <path fill="#FFF" d="M6.7 81.056h54.503V39.531H6.701z"/>
        <path fill="#DCEEFF" d="M11.728 77.704V39.53H6.699v41.526h54.504v-3.352z"/>
        <path stroke="#0F5EEA" stroke-linecap="round" stroke-width="3.2" d="M6.7 81.056h54.503V39.531H6.701z"/>
        <path fill="#FFF" d="M66.736 39.248H1.998l10.814-15.816h43.11z"/>
        <path fill="#DCEEFF" d="M10.38 35.896L18.9 23.432h-6.088L1.999 39.248h64.737l-2.291-3.352z"/>
        <path stroke="#0F5EEA" stroke-linecap="round" stroke-linejoin="round" stroke-width="3.2" d="M66.736 39.248H1.998l10.814-15.816h43.11z"/>
        <path fill="#FF8F43" d="M6.873 47.4A6.872 6.872 0 0 1 0 40.528v-2.954h13.745v2.954A6.872 6.872 0 0 1 6.873 47.4M20.62 47.4a6.872 6.872 0 0 1-6.872-6.872v-2.954h13.744v2.954A6.872 6.872 0 0 1 20.62 47.4M34.378 47.4a6.873 6.873 0 0 1-6.874-6.872v-2.954H41.25v2.954a6.872 6.872 0 0 1-6.872 6.872"/>
        <path fill="#FF8F43" d="M48.068 47.4a6.872 6.872 0 0 1-6.872-6.872v-2.954H54.94v2.954a6.872 6.872 0 0 1-6.872 6.872M61.851 47.4a6.872 6.872 0 0 1-6.873-6.872v-2.954h13.745v2.954a6.872 6.872 0 0 1-6.872 6.872"/>
        <path fill="#0F5EEA" d="M24.457 71.971h-8.265a3.005 3.005 0 0 1-3.005-3.004v-9.562a3.004 3.004 0 0 1 3.005-3.005h8.265a3.004 3.004 0 0 1 3.005 3.005v9.562a3.005 3.005 0 0 1-3.005 3.004M50.41 71.971h-8.263a3.005 3.005 0 0 1-3.005-3.004v-9.562a3.004 3.004 0 0 1 3.005-3.005h8.264a3.004 3.004 0 0 1 3.004 3.005v9.562a3.005 3.005 0 0 1-3.004 3.004"/>
        <path fill="#FFF" d="M74.551 59.057c-4.58 0-8.961-1.785-12.118-4.933-3.243 3.16-7.517 4.906-12.114 4.933-2.888 20.832 12.115 24.667 12.115 24.667s15.002-3.835 12.117-24.667"/>
        <path fill="#FFF" d="M74.551 59.284c0 .25-.078.437-.774.585-.695.108-2.042.264-4.498-.257-1.059-.22-2.837-.775-4.446-1.627a18.174 18.174 0 0 1-2.195-1.376c-.258-.168-.215-.104-.215-.104.03-.024-.059.044-.102.057.03-.054-.445.288-.691.469l-.884.627c-.598.4-1.198.797-1.857 1.122a19.158 19.158 0 0 1-4.928 1.667c-.557.102-1.109.184-1.651.243-.133.011-.261.023-.39.03-.009-.001-.006.007-.009.036-.032.33-.065.702-.105 1.11-.039.464-.117.971-.088 1.506-.013 2.142.052 4.877.852 7.592.788 2.7 2.2 5.39 4.19 7.325.966.992 2.044 1.796 3.097 2.464.54.302 1.06.608 1.58.832.255.13.508.22.751.32l.246.094c-.126.048.668-.229 1.124-.462.518-.22.987-.512 1.452-.76a18.089 18.089 0 0 0 2.378-1.746c1.376-1.194 2.264-2.438 2.931-3.451a19.906 19.906 0 0 0 1.3-2.458c.217-.601.335-.926.358-.985.265-.668.49-1.879.659-2.543.296-.961.296-1.617.397-2.173.062-.563.201-1.038.27-1.77.088-1.015.192-1.926.304-2.724.051-.8.085-1.486.155-2.05.133-1.126.328-1.756.564-1.788.238-.034.592.53.977 1.66.187.567.408 1.27.58 2.112.111.848.21 1.832.28 2.941.044.803-.045 1.56-.068 2.322-.022.384-.045.766-.065 1.157-.055.388-.136.784-.212 1.196-.164.823-.292 1.72-.672 2.687l-.552 1.553-.852 1.682c-.19.451-.967 1.654-1.844 2.803-.89 1.152-1.992 2.14-2.441 2.507-.08.063-.407.31-1.293.981-.46.309-1.062.73-1.904 1.189-.42.232-.89.485-1.446.722-.584.264-.99.441-2.38.843-.32-.104-.668-.218-1.048-.34-.337-.118-.488-.198-.763-.31-.491-.227-1.04-.472-1.597-.806-1.147-.616-2.37-1.517-3.59-2.602-2.422-2.205-4.538-5.485-5.544-8.925-1.046-3.435-1.126-6.841-1.056-9.396 0-.642.11-1.223.152-1.752.066-.652.128-1.23.18-1.727l.153-1.549c.37-.052.673-.036.808-.05l1.328-.063.5-.039.4-.048a15.46 15.46 0 0 0 1.631-.283 16.512 16.512 0 0 0 3.176-1.054c2.075-.949 3.32-1.904 5.277-3.749a44.592 44.592 0 0 0 1.854 1.707c.389.307.75.583 1.109.821.714.474 1.358.845 1.94 1.112 1.154.554 2 .79 2.56.934 2.823.644 4.615 1.412 4.647 1.959"/>
        <path fill="#FF8F43" d="M73.584 59.865c-4.213 0-8.24-1.641-11.146-4.537-2.98 2.907-6.913 4.513-11.14 4.537-2.656 19.16 11.14 22.688 11.14 22.688s13.799-3.528 11.146-22.688"/>
        <path fill="#FFF" d="M58.442 68.824l2.811 2.874 5.496-4.808-1.109-1.48-4.353 3.67-1.394-1.563z"/>
    </g>
</svg>
